<svg xmlns="http://www.w3.org/2000/svg" xmlns:xlink="http://www.w3.org/1999/xlink" viewBox="0 0 195.47 186.64"><defs><style>.cls-1{isolation:isolate;}.cls-2{fill:#be1622;}.cls-3{fill:#eac6b9;}.cls-10,.cls-4{fill:#90796b;}.cls-12,.cls-4,.cls-6,.cls-7{opacity:0.2;}.cls-4,.cls-9{mix-blend-mode:multiply;}.cls-5{opacity:0.6;}.cls-6{fill:url(#radial-gradient);}.cls-7{fill:url(#radial-gradient-2);}.cls-8{fill:#bb7d74;}.cls-14,.cls-8{opacity:0.7;}.cls-9{opacity:0.3;}.cls-11{fill:#432918;opacity:0.94;}.cls-13{fill:#fff;}.cls-14{fill:none;stroke:#000;stroke-miterlimit:10;stroke-width:0.5px;}</style><radialGradient id="radial-gradient" cx="239.87" cy="298.66" r="11.78" gradientTransform="translate(-150.02 -169.55) scale(0.92)" gradientUnits="userSpaceOnUse"><stop offset="0" stop-color="#e30613"/><stop offset="0.12" stop-color="#e4262f"/><stop offset="0.34" stop-color="#e65f60"/><stop offset="0.55" stop-color="#e88b86"/><stop offset="0.74" stop-color="#e9aba2"/><stop offset="0.89" stop-color="#eabfb3"/><stop offset="1" stop-color="#eac6b9"/></radialGradient><radialGradient id="radial-gradient-2" cx="302.76" cy="298.66" r="11.78" xlink:href="#radial-gradient"/></defs><title>carmen</title><g class="cls-1"><g id="Capa_1" data-name="Capa 1"><circle class="cls-2" cx="45.32" cy="112.7" r="13.78"/><circle class="cls-2" cx="44.45" cy="91.04" r="13.78"/><circle class="cls-2" cx="45.32" cy="70.2" r="13.78"/><circle class="cls-2" cx="55.14" cy="51.26" r="13.78"/><circle class="cls-2" cx="67.83" cy="38.71" r="13.78"/><circle class="cls-2" cx="87.01" cy="32.33" r="13.78"/><circle class="cls-2" cx="62.35" cy="134.99" r="13.78"/><circle class="cls-2" cx="76.14" cy="148.15" r="13.78"/><circle class="cls-2" cx="58.24" cy="148.15" r="13.78"/><circle class="cls-2" cx="49.85" cy="134.36" r="13.78"/><circle class="cls-2" cx="36.06" cy="125.35" r="13.78"/><circle class="cls-2" cx="36.06" cy="109.17" r="13.78"/><circle class="cls-2" cx="26.5" cy="95.39" r="13.78"/><circle class="cls-2" cx="30.67" cy="77.25" r="13.78"/><circle class="cls-2" cx="41.35" cy="88.81" r="13.78"/><circle class="cls-2" cx="36.06" cy="68.99" r="13.78"/><circle class="cls-2" cx="44.45" cy="46.11" r="13.78"/><circle class="cls-2" cx="36.06" cy="52.5" r="13.78"/><circle class="cls-2" cx="27.57" cy="67.05" r="13.78"/><circle class="cls-2" cx="31.72" cy="110.81" r="13.78"/><circle class="cls-2" cx="171.8" cy="330.24" r="13.78" transform="translate(-318.6 88.48) rotate(-54.32)"/><circle class="cls-2" cx="67.8" cy="149.19" r="13.78"/><circle class="cls-2" cx="82.7" cy="151.38" r="13.78"/><circle class="cls-2" cx="190.87" cy="340.47" r="13.78" transform="translate(-144.03 -175.31) rotate(-3.79)"/><circle class="cls-2" cx="22.28" cy="79.47" r="13.78"/><circle class="cls-2" cx="22.28" cy="53.27" r="13.78"/><circle class="cls-2" cx="31.54" cy="37.48" r="13.78"/><circle class="cls-2" cx="49.85" cy="27.57" r="13.78"/><circle class="cls-2" cx="68.92" cy="18.51" r="13.78"/><circle class="cls-2" cx="48.57" cy="38.71" r="13.78"/><circle class="cls-2" cx="63.63" cy="31.23" r="13.78"/><circle class="cls-2" cx="17.39" cy="92.36" r="13.78"/><circle class="cls-2" cx="22.28" cy="109.94" r="13.78"/><circle class="cls-2" cx="13.78" cy="70.57" r="13.78"/><circle class="cls-2" cx="87.01" cy="24.93" r="13.78"/><circle class="cls-2" cx="150.15" cy="112.7" r="13.78"/><circle class="cls-2" cx="151.01" cy="91.04" r="13.78"/><circle class="cls-2" cx="150.15" cy="70.2" r="13.78"/><circle class="cls-2" cx="140.33" cy="51.26" r="13.78"/><circle class="cls-2" cx="127.64" cy="38.71" r="13.78"/><circle class="cls-2" cx="108.46" cy="32.33" r="13.78"/><circle class="cls-2" cx="133.11" cy="134.99" r="13.78"/><circle class="cls-2" cx="119.33" cy="148.15" r="13.78"/><circle class="cls-2" cx="137.23" cy="148.15" r="13.78"/><circle class="cls-2" cx="145.62" cy="134.36" r="13.78"/><circle class="cls-2" cx="159.41" cy="125.35" r="13.78"/><circle class="cls-2" cx="159.41" cy="109.17" r="13.78"/><circle class="cls-2" cx="168.97" cy="95.39" r="13.78"/><circle class="cls-2" cx="164.8" cy="77.25" r="13.78"/><circle class="cls-2" cx="154.12" cy="88.81" r="13.78"/><circle class="cls-2" cx="159.41" cy="68.99" r="13.78"/><circle class="cls-2" cx="151.01" cy="46.11" r="13.78"/><circle class="cls-2" cx="159.41" cy="52.5" r="13.78"/><circle class="cls-2" cx="167.9" cy="67.05" r="13.78"/><circle class="cls-2" cx="163.75" cy="110.81" r="13.78"/><circle class="cls-2" cx="267.57" cy="330.24" r="13.78" transform="translate(-264.34 29.4) rotate(-35.68)"/><circle class="cls-2" cx="127.66" cy="149.19" r="13.78"/><circle class="cls-2" cx="112.77" cy="151.38" r="13.78"/><circle class="cls-2" cx="248.5" cy="340.47" r="13.78" transform="translate(-229.6 377.26) rotate(-86.21)"/><circle class="cls-2" cx="173.19" cy="79.47" r="13.78"/><circle class="cls-2" cx="173.19" cy="53.27" r="13.78"/><circle class="cls-2" cx="163.93" cy="37.48" r="13.78"/><circle class="cls-2" cx="145.62" cy="27.57" r="13.78"/><circle class="cls-2" cx="126.55" cy="18.51" r="13.78"/><circle class="cls-2" cx="146.9" cy="38.71" r="13.78"/><circle class="cls-2" cx="131.84" cy="31.23" r="13.78"/><circle class="cls-2" cx="178.08" cy="92.36" r="13.78"/><circle class="cls-2" cx="173.19" cy="109.94" r="13.78"/><circle class="cls-2" cx="181.68" cy="70.57" r="13.78"/><circle class="cls-2" cx="115.52" cy="31.99" r="20.84"/><polygon points="65.83 186.64 65.83 171.92 85.67 158.06 115.14 158.06 135.16 171.71 135.16 186.64 65.83 186.64"/><path class="cls-3" d="M236.78,344.74V309.9H207.73v35.61c0,.14,0,.28,0,.42,0,6.43,6.53,11.64,14.57,11.64s14.57-5.21,14.57-11.64A9.47,9.47,0,0,0,236.78,344.74Z" transform="translate(-121.95 -188.67)"/><path class="cls-4" d="M207.76,329.24v9.66c3.45,6,8.72,9.84,14.63,9.84s11-3.69,14.43-9.49v-10Z" transform="translate(-121.95 -188.67)"/><g class="cls-5"><path class="cls-2" d="M209,338.91a1.14,1.14,0,0,1,.23-.13,2.15,2.15,0,0,1,.33,0,1.82,1.82,0,0,0,.56-.09.52.52,0,0,1,.43,0c.17.06.32.12.48,0s.17,0,.26-.06a3.32,3.32,0,0,0,.58-.07c.16-.05.18,0,.21.14s0,.19.06.29h.06a2.22,2.22,0,0,0,0-.27c0-.13,0-.2.17-.21s.5-.13.75,0c0,0,.07,0,.11,0l.05.16c.07-.31.48-.33.75,0l0-.05.2.07a.4.4,0,0,0,.11,0c.28,0,.4.13.38.41v.13l.16-.12.2.45a1.53,1.53,0,0,1,.46-.22,1.76,1.76,0,0,1,.54.12l-.22.24,0,0,.18-.11c.13-.09.2-.06.25.09a.29.29,0,0,0,.09.11l.11.06c.28.2.28.27,0,.48l-.11.12c.2,0,.32-.27.5-.12s.28.21.23.37c.1.12.19.21.26.31a4.36,4.36,0,0,1,.56.86c.07.18.2.31.26.49a3,3,0,0,0,.24.47c.12.23.24.45.34.68,0,.08,0,.19,0,.29l-.28-.07a.18.18,0,0,1-.1-.07c-.14-.26-.41-.33-.64-.45l-.18-.11.14-.14c-.18,0-.41.07-.56,0s-.38-.15-.34-.42a.46.46,0,0,1-.58-.26c-.11-.26.23-.31.36-.53a2.07,2.07,0,0,0-.3.16.55.55,0,0,1-.75.05l.24-.52c-.25.23-.44.62-.89.32l.28-.59,0,0-.21.33a1.9,1.9,0,0,1-.13.24.62.62,0,0,1-.17.11,1.72,1.72,0,0,1-.08-.2s0-.07,0-.12a2.23,2.23,0,0,1-.3.24c-.06,0-.15,0-.22,0a.58.58,0,0,1,0-.2c.06-.17.14-.32.21-.49s0-.12.06-.18l0,0a1.46,1.46,0,0,0-.12.16l-.28.51c-.09.16-.18.16-.28,0a4.28,4.28,0,0,1-.28-.37.63.63,0,0,1-.07-.32,1.69,1.69,0,0,1,.1-.36l-.29.31-.12-.3,0,0-.33-.17a2,2,0,0,0-.37-.18c-.27-.07-.28-.07-.26-.34a.27.27,0,0,0,0-.16c0,.09-.09.18-.12.27s-.09.18-.21.13a.19.19,0,0,1-.14-.26.85.85,0,0,0,0-.25c-.36.47-.38.48-.54.25-.21.06-.22,0-.26-.17s0-.16-.08-.28l-.13.18a1.39,1.39,0,0,0-.07.14c-.32,0-.45-.14-.52-.32a3,3,0,0,0-.31-.12c-.13,0-.26,0-.39-.08A1.31,1.31,0,0,1,209,339Z" transform="translate(-121.95 -188.67)"/><path class="cls-2" d="M215.49,345.05l0-.28c-.18.41-.6.39-.94.54v-.18a3.13,3.13,0,0,1-.33.26c-.16.1-.23.06-.28-.15l-.29.07c-.2,0-.25,0-.19-.2s.07-.19.11-.32c-.19.16-.2.51-.53.44-.14,0-.29-.08-.27-.28-.48,0-.64-.13-.52-.53-.16.23-.31.34-.53.18s0-.26,0-.43a.73.73,0,0,1-.15.11c-.08,0-.21.08-.24,0a.34.34,0,0,1-.06-.26,1.6,1.6,0,0,1,.13-.33l0,0-.13.23c-.1.16-.22.19-.31,0-.2-.33-.58-.55-.65-1a.28.28,0,0,0-.09-.16.53.53,0,0,1-.15-.57c-.18.08-.22,0-.2-.16a.31.31,0,0,0-.14-.36c-.06,0-.08-.14-.1-.22s-.13-.43-.18-.65a1.34,1.34,0,0,1,0-.25c-.18-.36-.35-.7-.52-1,0,0,0-.13,0-.13s.2,0,.25,0,.29.34.43.5a.31.31,0,0,0,.11.1c.28.09.34.25.18.5a.27.27,0,0,0,0,.11c.26-.26.52-.12.78,0s.34.09.51.13v.07l-.25.12.14,0a4.07,4.07,0,0,1,.48.05c.07,0,.12.1.22.19a.45.45,0,0,1,.46.2c.08.1.23.15.35.23s.16.18,0,.31l-.31.28.05.06a1.36,1.36,0,0,1,.19-.14,1.12,1.12,0,0,1,.37-.15c.17,0,.24.09.2.26a1.64,1.64,0,0,1,.28,0c.2,0,.24.09.18.28s-.09.24-.13.36a.37.37,0,0,0,0,.19c.19-.16.18-.42.29-.62.32.07.34.1.32.48.13-.08,0-.36.25-.34a1.26,1.26,0,0,1,.39.17l0,0,.56.06h0a.74.74,0,0,1,.23.07c.06,0,.08.12.12.19h0l.11-.26c.14.06.28.11.42.19s.06.1.09.15c.23-.12.27-.12.47.07l0,0,.63.26c.08,0,.19.05.24.11a.45.45,0,0,0,.46.14,1.49,1.49,0,0,1,.45,0c.14,0,.17.17.05.22a6,6,0,0,1-.79.26s-.07,0-.12-.08c-.12.27-.38.23-.61.27a1.5,1.5,0,0,0-.26.08s-.08.05-.13.07l-1,.29Zm-2.61-.24.05,0,.28-.61,0,0Zm1.74-1.74h-.08l0,.49h.08Z" transform="translate(-121.95 -188.67)"/><path class="cls-2" d="M212.89,344.81l.29-.61,0,0-.28.61Z" transform="translate(-121.95 -188.67)"/><path class="cls-2" d="M214.63,343.07l0,.49h-.08l0-.49Z" transform="translate(-121.95 -188.67)"/></g><path class="cls-3" d="M243,244.45c-10.18-3.63-18-.68-18-.68h-.49l-.54-.18-.54.18H223s-7.79-3-18,.68c-25.62,9.14-20.37,46.79-12.58,73.37s55.39,26.58,63.17,0S268.66,253.6,243,244.45Z" transform="translate(-121.95 -188.67)"/><path class="cls-3" d="M193.42,245c4.27-3.32,7.74-.62,7.74-.62s-5,22.33-5,44.21c0,26.43,13,46.14,12.76,46.14-5.8,0-19.09-10.56-20.73-22.7C184.89,287.75,182.68,253.36,193.42,245Z" transform="translate(-121.95 -188.67)"/><circle class="cls-6" cx="71.4" cy="106.14" r="10.87"/><circle class="cls-7" cx="129.46" cy="106.14" r="10.87"/><circle class="cls-2" cx="83.81" cy="45.11" r="13.78"/><circle class="cls-2" cx="77.41" cy="52.5" r="13.78"/><circle class="cls-2" cx="65.83" cy="55.42" r="13.78"/><circle class="cls-2" cx="56.24" cy="76.71" r="13.78"/><circle class="cls-2" cx="51.14" cy="95.92" r="13.78"/><circle class="cls-2" cx="51.14" cy="105.56" r="13.78"/><circle class="cls-2" cx="54.24" cy="116.21" r="13.78"/><circle class="cls-2" cx="126.55" cy="52.5" r="13.78"/><circle class="cls-2" cx="134.25" cy="55.42" r="13.78"/><circle class="cls-2" cx="143.84" cy="76.71" r="13.78"/><circle class="cls-2" cx="148.94" cy="95.92" r="13.78"/><circle class="cls-2" cx="150.15" cy="106.14" r="13.78"/><circle class="cls-2" cx="147.84" cy="116.21" r="13.78"/><circle class="cls-2" cx="100.79" cy="48.63" r="13.78"/><circle class="cls-2" cx="98.98" cy="13.78" r="13.78"/><circle class="cls-2" cx="83.81" cy="17.44" r="13.78"/><circle class="cls-2" cx="116.27" cy="18.55" r="13.78"/><path class="cls-8" d="M232.23,314.74a.25.25,0,0,0-.4.08,2.06,2.06,0,0,1-.79.71,20,20,0,0,1-4.28-2.39,2.89,2.89,0,0,0-3.25,0,1.46,1.46,0,0,1-1.05.37h0a1.46,1.46,0,0,1-1.06-.37,2.89,2.89,0,0,0-3.25,0,20,20,0,0,1-4.28,2.39,2,2,0,0,1-.78-.71.25.25,0,0,0-.4-.08.4.4,0,0,0-.07.49,2.42,2.42,0,0,0,1.94,1.17h.1a28,28,0,0,0,2.82-.38,16.6,16.6,0,0,1,4.93-.4h.11a16.59,16.59,0,0,1,4.93.4,28,28,0,0,0,2.82.38h.1a2.43,2.43,0,0,0,1.94-1.17A.4.4,0,0,0,232.23,314.74Z" transform="translate(-121.95 -188.67)"/><path class="cls-8" d="M228.3,317.43c-.89.42-1.69,1-2.32,1.31a8.94,8.94,0,0,1-3.8.84,9.33,9.33,0,0,1-3.8-.84c-.62-.35-1.43-.89-2.32-1.31-1.13.62-1.8,1.41-1.8,2.27,0,2,3.55,5,7.92,5s7.92-3,7.92-5C230.1,318.84,229.42,318,228.3,317.43Z" transform="translate(-121.95 -188.67)"/><g class="cls-9"><path class="cls-10" d="M220.82,302.29a6,6,0,0,1-3-.28c-.54-.42-.27-1.73.64-1.65a5,5,0,0,1,2.33,1.14C221,301.74,221,302.18,220.82,302.29Z" transform="translate(-121.95 -188.67)"/><path class="cls-10" d="M223.07,302.29a6,6,0,0,0,3-.28c.54-.42.27-1.73-.64-1.65a5,5,0,0,0-2.33,1.14C222.83,301.74,222.86,302.18,223.07,302.29Z" transform="translate(-121.95 -188.67)"/></g><path class="cls-11" d="M205.4,272.41a12.8,12.8,0,0,0-1.92-.26l-1-.06c-.33,0-.67.05-1,.07a11.71,11.71,0,0,0-2,.26c-.64.17-1.29.3-1.9.51s-1.21.4-1.75.66-1.07.48-1.56.7c-.95.48-1.75.91-2.3,1.23s-.87.52-.87.52a11.56,11.56,0,0,1,2.5-2.77,12.52,12.52,0,0,1,1.48-1.08,12.75,12.75,0,0,1,1.81-1,14.69,14.69,0,0,1,2.1-.76,13.91,13.91,0,0,1,2.3-.39c.39,0,.79-.05,1.18,0l1.17.1a11.35,11.35,0,0,1,4.13,1.33,7.84,7.84,0,0,1,1.55,1,7.12,7.12,0,0,1,1.18,1c.32.33.58.64.79.88.43.5.65.79.65.79s-.35-.16-.92-.46c-.28-.15-.63-.33-1-.55a11.66,11.66,0,0,0-1.32-.6,11.19,11.19,0,0,0-1.56-.61" transform="translate(-121.95 -188.67)"/><path class="cls-11" d="M244.91,272.41a12.8,12.8,0,0,0-1.92-.26l-1-.06c-.33,0-.67.05-1,.07a11.71,11.71,0,0,0-2,.26c-.64.17-1.29.3-1.9.51s-1.21.4-1.75.66-1.07.48-1.56.7c-.95.48-1.75.91-2.3,1.23s-.87.52-.87.52a11.56,11.56,0,0,1,2.5-2.77,12.52,12.52,0,0,1,1.48-1.08,12.75,12.75,0,0,1,1.81-1,14.69,14.69,0,0,1,2.1-.76,13.91,13.91,0,0,1,2.3-.39c.39,0,.79-.05,1.18,0l1.17.1a11.35,11.35,0,0,1,4.13,1.33,7.84,7.84,0,0,1,1.55,1,7.12,7.12,0,0,1,1.18,1c.32.33.58.64.79.88.43.5.65.79.65.79s-.35-.16-.92-.46c-.28-.15-.63-.33-1-.55a11.66,11.66,0,0,0-1.32-.6,11.19,11.19,0,0,0-1.56-.61" transform="translate(-121.95 -188.67)"/><circle class="cls-11" cx="82.66" cy="91.89" r="5.24"/><g class="cls-12"><circle class="cls-13" cx="81.39" cy="89.25" r="1.78"/></g><circle class="cls-11" cx="118.55" cy="91.89" r="5.24"/><path class="cls-4" d="M195.69,283.69a5.56,5.56,0,0,0,.57.42c.2.12.43.27.72.4s.62.28,1,.43a10.81,10.81,0,0,0,1.2.37,11.55,11.55,0,0,0,1.38.27c.48.05,1,.09,1.5.1a14.07,14.07,0,0,0,1.56-.07,12.35,12.35,0,0,0,1.54-.2,12.94,12.94,0,0,0,1.48-.32c.47-.14.94-.24,1.36-.39l1.19-.44c.75-.26,1.33-.57,1.76-.74l.66-.29.08.17s-.18.23-.52.59c-.18.18-.39.4-.65.62a5.76,5.76,0,0,1-.91.71c-.35.24-.73.49-1.16.73a11,11,0,0,1-1.39.64,9.27,9.27,0,0,1-1.58.49,14.21,14.21,0,0,1-1.71.29,15.35,15.35,0,0,1-1.75,0,4.31,4.31,0,0,1-.86-.1c-.28-.05-.56-.09-.83-.16a7.74,7.74,0,0,1-1.52-.52,6.9,6.9,0,0,1-1.26-.69,6.39,6.39,0,0,1-1.56-1.47,3.79,3.79,0,0,1-.32-.52,1.35,1.35,0,0,1-.09-.19Z" transform="translate(-121.95 -188.67)"/><path class="cls-4" d="M195.38,277.64a10.05,10.05,0,0,1,2.18-1.37,14.28,14.28,0,0,1,2.46-.92,12.15,12.15,0,0,1,1.46-.33c.5-.1,1-.13,1.54-.2s1,0,1.56,0a14,14,0,0,1,1.51.17,9.34,9.34,0,0,1,1.39.35,9.17,9.17,0,0,1,1.19.48c.36.19.66.38.94.54a5.53,5.53,0,0,1,.65.52c.34.31.52.49.52.49l-.06.1-.6-.31a7.6,7.6,0,0,0-.7-.34l-.95-.34c-.35-.12-.75-.18-1.16-.29s-.86-.12-1.31-.19a17.52,17.52,0,0,0-2.88,0,25.8,25.8,0,0,0-5.33,1,24.24,24.24,0,0,0-2.33.8Z" transform="translate(-121.95 -188.67)"/><path class="cls-4" d="M233.43,283.69a5.56,5.56,0,0,0,.57.42c.2.12.43.27.72.4s.62.28,1,.43a10.81,10.81,0,0,0,1.2.37,11.55,11.55,0,0,0,1.38.27c.48.05,1,.09,1.5.1a14.07,14.07,0,0,0,1.56-.07,12.35,12.35,0,0,0,1.54-.2,12.94,12.94,0,0,0,1.48-.32c.47-.14.94-.24,1.36-.39l1.19-.44c.75-.26,1.33-.57,1.76-.74l.66-.29.08.17s-.18.23-.52.59c-.18.18-.39.4-.65.62a5.76,5.76,0,0,1-.91.71c-.35.24-.73.49-1.16.73a11,11,0,0,1-1.39.64,9.27,9.27,0,0,1-1.58.49,14.21,14.21,0,0,1-1.71.29,15.35,15.35,0,0,1-1.75,0,4.31,4.31,0,0,1-.86-.1c-.28-.05-.56-.09-.83-.16a7.74,7.74,0,0,1-1.52-.52,6.9,6.9,0,0,1-1.26-.69,6.39,6.39,0,0,1-1.56-1.47,3.79,3.79,0,0,1-.32-.52,1.35,1.35,0,0,1-.09-.19Z" transform="translate(-121.95 -188.67)"/><path class="cls-4" d="M233.26,277.64a10.05,10.05,0,0,1,2.18-1.37,14.28,14.28,0,0,1,2.46-.92,12.15,12.15,0,0,1,1.46-.33c.5-.1,1-.13,1.54-.2s1,0,1.56,0A14,14,0,0,1,244,275a9.34,9.34,0,0,1,1.39.35,9.17,9.17,0,0,1,1.19.48c.36.19.66.38.94.54a5.53,5.53,0,0,1,.65.52c.34.31.52.49.52.49l-.06.1-.6-.31a7.6,7.6,0,0,0-.7-.34l-.95-.34c-.35-.12-.75-.18-1.16-.29s-.86-.12-1.31-.19a17.52,17.52,0,0,0-2.88,0,25.8,25.8,0,0,0-5.33,1,24.24,24.24,0,0,0-2.33.8Z" transform="translate(-121.95 -188.67)"/><g class="cls-12"><circle class="cls-13" cx="117.27" cy="89.25" r="1.78"/></g><path class="cls-14" d="M195.69,283.69a5.56,5.56,0,0,0,.57.42c.2.12.43.27.72.4s.62.28,1,.43a10.81,10.81,0,0,0,1.2.37,11.55,11.55,0,0,0,1.38.27c.48.05,1,.09,1.5.1a14.07,14.07,0,0,0,1.56-.07,12.35,12.35,0,0,0,1.54-.2,12.94,12.94,0,0,0,1.48-.32c.47-.14.94-.24,1.36-.39l1.19-.44c.75-.26,1.33-.57,1.76-.74l.66-.29" transform="translate(-121.95 -188.67)"/><path class="cls-14" d="M233.43,283.69a5.56,5.56,0,0,0,.57.42c.2.12.43.27.72.4s.62.28,1,.43a10.81,10.81,0,0,0,1.2.37,11.55,11.55,0,0,0,1.38.27c.48.05,1,.09,1.5.1a14.07,14.07,0,0,0,1.56-.07,12.35,12.35,0,0,0,1.54-.2,12.94,12.94,0,0,0,1.48-.32c.47-.14.94-.24,1.36-.39l1.19-.44c.75-.26,1.33-.57,1.76-.74l.66-.29" transform="translate(-121.95 -188.67)"/></g></g></svg>